# xmcd
#
# Track frame offsets:
#	300
#	15135
#	33105
#	50135
#	65461
#	81295
#	109348
#	125362
#	152033
#	174854
#	196781
#	217056
#
# Disc length: 3086 seconds
#
# Revision: 1
# Processed by: cddbd v1.5.2PL0 Copyright (c) Steve Scherf et al.
# Submitted via: audiograbber 1.83.01
#
DISCID=990c0a0c
DTITLE=Various Artist - Street Beats V10 S06 CD1
DYEAR=1900
DGENRE=R&B
TTITLE0=Kiley Dean - Make Me A Song
TTITLE1=Bon Garcon - Shake Shake
TTITLE2=The Isley Brothers - What Would You Do? Pt.1
TTITLE3=Mario - C'mon (Just Blaze Remix)
TTITLE4=Larry Gold - Loving You Ft Carol Riddick
TTITLE5=Siji - Feels Like (Osunlade's Yoruba Soul Mix)
TTITLE6=Kardinal Offishall - Belly Dancer Ft Pharrell Williams
TTITLE7=Mis-Teeq - Can't Get It Back (Sticky Remix)
TTITLE8=RZA - I've Never Seen
TTITLE9=P*nut - Hey Hey Hey (Ed Funk Mix)
TTITLE10=Freddie Foxx - Paine
TTITLE11=Ward 21 - Rhyme
EXTD=
EXTT0=
EXTT1=
EXTT2=
EXTT3=
EXTT4=
EXTT5=
EXTT6=
EXTT7=
EXTT8=
EXTT9=
EXTT10=
EXTT11=
PLAYORDER=
